<svg id="Layer_1" data-name="Layer 1" xmlns="http://www.w3.org/2000/svg" width="690" height="350" viewBox="0 0 690 350">
  <title>qt_TienMat</title>
  <rect width="690" height="350" style="fill: #fff;opacity: 0"/>
  <g>
    <g id="Group_27173" data-name="Group 27173">
      <rect id="Rectangle_15579" data-name="Rectangle 15579" x="116" y="53" width="36" height="44" rx="2" style="fill: #2ca01c"/>
      <path id="Path_29841" data-name="Path 29841" d="M151.63,58.16A45.72,45.72,0,0,1,118,97h0a2,2,0,0,1-2-2V55a2,2,0,0,1,2-2h32a2,2,0,0,1,2,2Z" style="fill: #47b138"/>
      <g id="Group_26887" data-name="Group 26887" style="opacity: 0.5">
        <path id="Path_11120-2" data-name="Path 11120-2" d="M120,67h24v2H120Z" style="fill: #fff"/>
        <path id="Path_11120-2-2" data-name="Path 11120-2-2" d="M120,71h24v2H120Z" style="fill: #fff"/>
        <path id="Path_11120-2-3" data-name="Path 11120-2-3" d="M120,75h4v2h-4Z" style="fill: #fff"/>
        <path id="Path_11120-2-4" data-name="Path 11120-2-4" d="M120,79h4v2h-4Z" style="fill: #fff"/>
      </g>
      <g id="Rectangle_15580" data-name="Rectangle 15580">
        <rect x="130" y="79" width="28" height="16" style="fill: #fb0"/>
        <rect x="129" y="78" width="30" height="18" style="fill: none;stroke: #e59033;stroke-miterlimit: 10;stroke-width: 2px"/>
      </g>
      <path id="Rectangle_15581" data-name="Rectangle 15581" d="M143.67,85.24h0a2,2,0,0,1,2,2h0a2,2,0,0,1-2,2h0a2,2,0,0,1-2-2h0A2,2,0,0,1,143.67,85.24Z" style="fill: #fff"/>
      <g id="Path_29842" data-name="Path 29842">
        <path d="M152,93H136a2,2,0,0,0-2-2h0V83h0a2,2,0,0,0,2-2h16a2,2,0,0,0,2,2h0v8h0A2,2,0,0,0,152,93Z" style="fill: none"/>
        <path d="M150.54,91A3.93,3.93,0,0,1,152,89.54V84.46A3.93,3.93,0,0,1,150.54,83H137.46A3.93,3.93,0,0,1,136,84.46v5.08A3.93,3.93,0,0,1,137.46,91H151m1,2H136a2,2,0,0,0-2-2V83a2,2,0,0,0,2-2h16a2,2,0,0,0,2,2v8A2,2,0,0,0,152,93Z" style="fill: #fff"/>
      </g>
      <g id="Group_26888" data-name="Group 26888">
        <line id="Line_965" data-name="Line 965" x1="123" y1="57" x2="123" y2="63" style="fill: none;stroke: #fff;stroke-linecap: round;stroke-linejoin: round;stroke-width: 2px"/>
        <line id="Line_966" data-name="Line 966" x1="121" y1="57" x2="125" y2="57" style="fill: none;stroke: #fff;stroke-linecap: round;stroke-linejoin: round;stroke-width: 2px"/>
        <line id="Line_967" data-name="Line 967" x1="128" y1="57" x2="128" y2="63" style="fill: none;stroke: #fff;stroke-linecap: round;stroke-linejoin: round;stroke-width: 2px"/>
        <line id="Line_968" data-name="Line 968" x1="128" y1="60" x2="132" y2="60" style="fill: none;stroke: #fff;stroke-linecap: round;stroke-linejoin: round;stroke-width: 2px"/>
        <line id="Line_969" data-name="Line 969" x1="132" y1="57" x2="132" y2="63" style="fill: none;stroke: #fff;stroke-linecap: round;stroke-linejoin: round;stroke-width: 2px"/>
        <path id="Path_29843" data-name="Path 29843" d="M135,57v6h4V57" style="fill: none;stroke: #fff;stroke-linecap: round;stroke-linejoin: round;stroke-width: 2px"/>
      </g>
    </g>
    <g id="Group_27174" data-name="Group 27174">
      <rect id="Rectangle_15582" data-name="Rectangle 15582" x="116" y="229" width="36" height="44" rx="2" style="fill: #2ca01c"/>
      <path id="Path_29844" data-name="Path 29844" d="M151.63,234.16A45.72,45.72,0,0,1,118,273h0a2,2,0,0,1-2-2V231a2,2,0,0,1,2-2h32a2,2,0,0,1,2,2Z" style="fill: #47b138"/>
      <g id="Group_26890" data-name="Group 26890" style="opacity: 0.5">
        <path id="Path_11120-2-5" data-name="Path 11120-2-5" d="M120,243h24v2H120Z" style="fill: #fff"/>
        <path id="Path_11120-2-6" data-name="Path 11120-2-6" d="M120,247h24v2H120Z" style="fill: #fff"/>
        <path id="Path_11120-2-7" data-name="Path 11120-2-7" d="M120,251h4v2h-4Z" style="fill: #fff"/>
        <path id="Path_11120-2-8" data-name="Path 11120-2-8" d="M120,255h4v2h-4Z" style="fill: #fff"/>
      </g>
      <g id="Rectangle_15583" data-name="Rectangle 15583">
        <rect x="130" y="255" width="28" height="16" style="fill: #fb0"/>
        <rect x="129" y="254" width="30" height="18" style="fill: none;stroke: #e59033;stroke-miterlimit: 10;stroke-width: 2px"/>
      </g>
      <path id="Rectangle_15584" data-name="Rectangle 15584" d="M143.67,261.24h0a2,2,0,0,1,2,2h0a2,2,0,0,1-2,2h0a2,2,0,0,1-2-2h0A2,2,0,0,1,143.67,261.24Z" style="fill: #fff"/>
      <g id="Path_29845" data-name="Path 29845">
        <path d="M152,269H136a2,2,0,0,0-2-2h0v-8h0a2,2,0,0,0,2-2h16a2,2,0,0,0,2,2h0v8h0A2,2,0,0,0,152,269Z" style="fill: none"/>
        <path d="M150.54,267a3.93,3.93,0,0,1,1.46-1.46v-5.08a3.93,3.93,0,0,1-1.46-1.46H137.46a3.93,3.93,0,0,1-1.46,1.46v5.08a3.93,3.93,0,0,1,1.46,1.46H151m1,2H136a2,2,0,0,0-2-2v-8a2,2,0,0,0,2-2h16a2,2,0,0,0,2,2v8A2,2,0,0,0,152,269Z" style="fill: #fff"/>
      </g>
      <g id="Group_26891" data-name="Group 26891">
        <path id="Path_29846" data-name="Path 29846" d="M124,233h-1a2,2,0,0,0-2,2v2a2,2,0,0,0,2,2h1" style="fill: none;stroke: #fff;stroke-linecap: round;stroke-linejoin: round;stroke-width: 2px"/>
        <line id="Line_970" data-name="Line 970" x1="127" y1="233" x2="127" y2="239" style="fill: none;stroke: #fff;stroke-linecap: round;stroke-linejoin: round;stroke-width: 2px"/>
        <line id="Line_971" data-name="Line 971" x1="127" y1="236" x2="131" y2="236" style="fill: none;stroke: #fff;stroke-linecap: round;stroke-linejoin: round;stroke-width: 2px"/>
        <line id="Line_972" data-name="Line 972" x1="131" y1="233" x2="131" y2="239" style="fill: none;stroke: #fff;stroke-linecap: round;stroke-linejoin: round;stroke-width: 2px"/>
        <line id="Line_973" data-name="Line 973" x1="134" y1="233" x2="134" y2="239" style="fill: none;stroke: #fff;stroke-linecap: round;stroke-linejoin: round;stroke-width: 2px"/>
      </g>
    </g>
    <g id="Group_27176" data-name="Group 27176">
      <rect id="Rectangle_15618" data-name="Rectangle 15618" x="377" y="140" width="36" height="44" rx="2" style="fill: #2ca01c"/>
      <path id="Path_29857" data-name="Path 29857" d="M412.63,145.16A45.72,45.72,0,0,1,379,184h0a2,2,0,0,1-2-2V142a2,2,0,0,1,2-2h32a2,2,0,0,1,2,2Z" style="fill: #47b138"/>
      <g id="Group_26800" data-name="Group 26800" style="opacity: 0.5">
        <path id="Path_11120-2-9" data-name="Path 11120-2-9" d="M393,149h12v2H393Z" style="fill: #fff"/>
        <path id="Path_11120-2-2-2" data-name="Path 11120-2-2-2" d="M393,157h12v2H393Z" style="fill: #fff"/>
        <path id="Path_11120-2-3-2" data-name="Path 11120-2-3-2" d="M393,165h12v2H393Z" style="fill: #fff"/>
      </g>
      <path id="Path_30334" data-name="Path 30334" d="M381.67,151.24l2,2,4-4" style="fill: none;stroke: #fff;stroke-linecap: round;stroke-linejoin: round;stroke-width: 2px"/>
      <path id="Path_30335" data-name="Path 30335" d="M381.67,158.24l2,2,4-4" style="fill: none;stroke: #fff;stroke-linecap: round;stroke-linejoin: round;stroke-width: 2px"/>
      <path id="Path_30336" data-name="Path 30336" d="M381.67,165.24l2,2,4-4" style="fill: none;stroke: #fff;stroke-linecap: round;stroke-linejoin: round;stroke-width: 2px"/>
      <g id="Rectangle_15619" data-name="Rectangle 15619">
        <rect x="400" y="166" width="19" height="16" rx="2" style="fill: #fb0"/>
        <rect x="399" y="165" width="21" height="18" rx="3" style="fill: none;stroke: #e59033;stroke-miterlimit: 10;stroke-width: 2px"/>
      </g>
      <rect id="Rectangle_15620" data-name="Rectangle 15620" x="410" y="170" width="2" height="2" style="fill: #fff"/>
      <rect id="Rectangle_15621" data-name="Rectangle 15621" x="410" y="173" width="2" height="2" style="fill: #fff"/>
      <rect id="Rectangle_15622" data-name="Rectangle 15622" x="399" y="173" width="2" height="2" style="fill: #e59033"/>
      <rect id="Rectangle_15623" data-name="Rectangle 15623" x="399" y="176" width="2" height="2" style="fill: #e59033"/>
      <rect id="Rectangle_15624" data-name="Rectangle 15624" x="399" y="170" width="2" height="2" style="fill: #e59033"/>
      <rect id="Rectangle_15625" data-name="Rectangle 15625" x="410" y="176" width="2" height="2" style="fill: #fff"/>
      <rect id="Rectangle_15626" data-name="Rectangle 15626" x="413" y="170" width="2" height="2" style="fill: #fff"/>
      <rect id="Rectangle_15627" data-name="Rectangle 15627" x="413" y="173" width="2" height="2" style="fill: #fff"/>
      <rect id="Rectangle_15628" data-name="Rectangle 15628" x="413" y="176" width="2" height="2" style="fill: #fff"/>
      <rect id="Rectangle_15629" data-name="Rectangle 15629" x="416" y="170" width="2" height="2" style="fill: #fff"/>
      <rect id="Rectangle_15630" data-name="Rectangle 15630" x="416" y="173" width="2" height="2" style="fill: #fff"/>
      <rect id="Rectangle_15631" data-name="Rectangle 15631" x="416" y="176" width="2" height="2" style="fill: #fff"/>
      <path id="Rectangle_15632" data-name="Rectangle 15632" d="M405.17,172.24h0a2,2,0,0,1,2,2h0a2,2,0,0,1-2,2h0a2,2,0,0,1-2-2h0A2,2,0,0,1,405.17,172.24Z" style="fill: #fff"/>
      <g id="Group_26913" data-name="Group 26913">
        <line id="Line_1016" data-name="Line 1016" x1="406" y1="174" x2="408" y2="174" style="fill: none;stroke: #fff;stroke-linecap: round;stroke-miterlimit: 10;stroke-width: 2px"/>
        <line id="Line_1017" data-name="Line 1017" x1="403" y1="174" x2="405" y2="174" style="fill: none;stroke: #fff;stroke-linecap: round;stroke-miterlimit: 10;stroke-width: 2px"/>
      </g>
      <g id="Group_26914" data-name="Group 26914">
        <line id="Line_1018" data-name="Line 1018" x1="405" y1="175" x2="405" y2="177" style="fill: none;stroke: #fff;stroke-linecap: round;stroke-miterlimit: 10;stroke-width: 2px"/>
        <line id="Line_1019" data-name="Line 1019" x1="405" y1="172" x2="405" y2="174" style="fill: none;stroke: #fff;stroke-linecap: round;stroke-miterlimit: 10;stroke-width: 2px"/>
      </g>
    </g>
    <line id="Line_1203" data-name="Line 1203" x1="136" y1="145" x2="136" y2="205" style="fill: none;stroke: #b4c8b1;stroke-width: 2px"/>
    <line id="Line_1204" data-name="Line 1204" x1="136" y1="175" x2="326" y2="175" style="fill: none;stroke: #b4c8b1;stroke-width: 2px"/>
    <line id="Line_1205" data-name="Line 1205" x1="468" y1="175" x2="578" y2="175" style="fill: none;stroke: #b4c8b1;stroke-width: 2px"/>
    <path id="Path_30411" data-name="Path 30411" d="M573,170l5,5-5,5" style="fill: none;stroke: #b4c8b1;stroke-miterlimit: 10;stroke-width: 2px"/>
    <path id="Path_30411-2" data-name="Path 30411" d="M321,170l5,5-5,5" style="fill: none;stroke: #b4c8b1;stroke-miterlimit: 10;stroke-width: 2px"/>
  </g>
</svg>
